<mxfile host="app.diagrams.net" modified="2024-03-05T12:52:07.969Z" agent="Mozilla/5.0 (Windows NT 10.0; Win64; x64) AppleWebKit/537.36 (KHTML, like Gecko) Chrome/121.0.0.0 Safari/537.36 Edg/121.0.0.0" etag="bkR9iFBUHtmOQkVr3FYt" version="24.0.1" type="github">
  <diagram name="Page-1" id="UhqVwHwxGNK04qNiGF0-">
    <mxGraphModel dx="1270" dy="756" grid="1" gridSize="10" guides="1" tooltips="1" connect="1" arrows="1" fold="1" page="1" pageScale="1" pageWidth="827" pageHeight="1169" math="0" shadow="0">
      <root>
        <mxCell id="0" />
        <mxCell id="1" parent="0" />
        <mxCell id="uGKq0k5-A1dVgsjH4IUW-10" style="edgeStyle=orthogonalEdgeStyle;rounded=0;orthogonalLoop=1;jettySize=auto;html=1;exitX=0.5;exitY=1;exitDx=0;exitDy=0;" edge="1" parent="1" source="uGKq0k5-A1dVgsjH4IUW-1" target="uGKq0k5-A1dVgsjH4IUW-5">
          <mxGeometry relative="1" as="geometry" />
        </mxCell>
        <mxCell id="uGKq0k5-A1dVgsjH4IUW-1" value="start" style="ellipse;whiteSpace=wrap;html=1;" vertex="1" parent="1">
          <mxGeometry x="340" y="50" width="120" height="80" as="geometry" />
        </mxCell>
        <mxCell id="uGKq0k5-A1dVgsjH4IUW-2" value="end" style="ellipse;whiteSpace=wrap;html=1;" vertex="1" parent="1">
          <mxGeometry x="560" y="390" width="120" height="80" as="geometry" />
        </mxCell>
        <mxCell id="uGKq0k5-A1dVgsjH4IUW-12" style="edgeStyle=orthogonalEdgeStyle;rounded=0;orthogonalLoop=1;jettySize=auto;html=1;exitX=0.5;exitY=1;exitDx=0;exitDy=0;" edge="1" parent="1" source="uGKq0k5-A1dVgsjH4IUW-3" target="uGKq0k5-A1dVgsjH4IUW-2">
          <mxGeometry relative="1" as="geometry" />
        </mxCell>
        <mxCell id="uGKq0k5-A1dVgsjH4IUW-3" value="print&lt;div&gt;total_sum&lt;/div&gt;" style="shape=parallelogram;perimeter=parallelogramPerimeter;whiteSpace=wrap;html=1;fixedSize=1;" vertex="1" parent="1">
          <mxGeometry x="560" y="260" width="120" height="60" as="geometry" />
        </mxCell>
        <mxCell id="uGKq0k5-A1dVgsjH4IUW-14" style="edgeStyle=orthogonalEdgeStyle;rounded=0;orthogonalLoop=1;jettySize=auto;html=1;entryX=0;entryY=0.5;entryDx=0;entryDy=0;" edge="1" parent="1" source="uGKq0k5-A1dVgsjH4IUW-4" target="uGKq0k5-A1dVgsjH4IUW-6">
          <mxGeometry relative="1" as="geometry">
            <Array as="points">
              <mxPoint x="250" y="430" />
              <mxPoint x="250" y="290" />
            </Array>
          </mxGeometry>
        </mxCell>
        <mxCell id="uGKq0k5-A1dVgsjH4IUW-4" value="add current number to total_sum" style="rounded=0;whiteSpace=wrap;html=1;" vertex="1" parent="1">
          <mxGeometry x="340" y="400" width="120" height="60" as="geometry" />
        </mxCell>
        <mxCell id="uGKq0k5-A1dVgsjH4IUW-9" style="edgeStyle=orthogonalEdgeStyle;rounded=0;orthogonalLoop=1;jettySize=auto;html=1;exitX=0.5;exitY=1;exitDx=0;exitDy=0;" edge="1" parent="1" source="uGKq0k5-A1dVgsjH4IUW-5" target="uGKq0k5-A1dVgsjH4IUW-6">
          <mxGeometry relative="1" as="geometry" />
        </mxCell>
        <mxCell id="uGKq0k5-A1dVgsjH4IUW-5" value="total_sum = 0" style="rounded=0;whiteSpace=wrap;html=1;" vertex="1" parent="1">
          <mxGeometry x="340" y="160" width="120" height="60" as="geometry" />
        </mxCell>
        <mxCell id="uGKq0k5-A1dVgsjH4IUW-7" style="edgeStyle=orthogonalEdgeStyle;rounded=0;orthogonalLoop=1;jettySize=auto;html=1;exitX=0.5;exitY=1;exitDx=0;exitDy=0;entryX=0.5;entryY=0;entryDx=0;entryDy=0;" edge="1" parent="1" source="uGKq0k5-A1dVgsjH4IUW-6" target="uGKq0k5-A1dVgsjH4IUW-4">
          <mxGeometry relative="1" as="geometry" />
        </mxCell>
        <mxCell id="uGKq0k5-A1dVgsjH4IUW-13" style="edgeStyle=orthogonalEdgeStyle;rounded=0;orthogonalLoop=1;jettySize=auto;html=1;exitX=1;exitY=0.5;exitDx=0;exitDy=0;entryX=0;entryY=0.5;entryDx=0;entryDy=0;" edge="1" parent="1" source="uGKq0k5-A1dVgsjH4IUW-6" target="uGKq0k5-A1dVgsjH4IUW-3">
          <mxGeometry relative="1" as="geometry" />
        </mxCell>
        <mxCell id="uGKq0k5-A1dVgsjH4IUW-6" value="for i in range(1,11)" style="rhombus;whiteSpace=wrap;html=1;" vertex="1" parent="1">
          <mxGeometry x="350" y="240" width="100" height="100" as="geometry" />
        </mxCell>
        <mxCell id="uGKq0k5-A1dVgsjH4IUW-8" value="true" style="text;html=1;align=center;verticalAlign=middle;resizable=0;points=[];autosize=1;strokeColor=none;fillColor=none;" vertex="1" parent="1">
          <mxGeometry x="400" y="348" width="40" height="30" as="geometry" />
        </mxCell>
        <mxCell id="uGKq0k5-A1dVgsjH4IUW-18" value="false" style="text;html=1;align=center;verticalAlign=middle;resizable=0;points=[];autosize=1;strokeColor=none;fillColor=none;" vertex="1" parent="1">
          <mxGeometry x="475" y="258" width="50" height="30" as="geometry" />
        </mxCell>
      </root>
    </mxGraphModel>
  </diagram>
</mxfile>
